<svg width="23" height="24" viewBox="0 0 23 24" fill="none" xmlns="http://www.w3.org/2000/svg">
<path d="M7 2V5" stroke="#FFDE17" stroke-width="2" stroke-miterlimit="10" stroke-linecap="round" stroke-linejoin="round"/>
<path d="M15 2V5" stroke="#FFDE17" stroke-width="2" stroke-miterlimit="10" stroke-linecap="round" stroke-linejoin="round"/>
<path d="M2.5 9.09009H19.5" stroke="#FFDE17" stroke-width="2" stroke-miterlimit="10" stroke-linecap="round" stroke-linejoin="round"/>
<path d="M12.37 22H7C3.5 22 2 20 2 17V8.5C2 5.5 3.5 3.5 7 3.5H15C18.5 3.5 20 5.5 20 8.5V13" stroke="#FFDE17" stroke-width="2" stroke-miterlimit="10" stroke-linecap="round" stroke-linejoin="round"/>
<path d="M10.9955 13.7H11.0045" stroke="#FFDE17" stroke-width="2" stroke-linecap="round" stroke-linejoin="round"/>
<path d="M7.29431 13.7H7.30329" stroke="#FFDE17" stroke-width="2" stroke-linecap="round" stroke-linejoin="round"/>
<path d="M7.29431 16.7H7.30329" stroke="#FFDE17" stroke-width="2" stroke-linecap="round" stroke-linejoin="round"/>
<path d="M17.2 21.4C18.9673 21.4 20.4 19.9673 20.4 18.2C20.4 16.4327 18.9673 15 17.2 15C15.4327 15 14 16.4327 14 18.2C14 19.9673 15.4327 21.4 17.2 21.4Z" stroke="#FFDE17" stroke-width="2" stroke-linecap="round" stroke-linejoin="round"/>
<path d="M21 22L20 21" stroke="#FFDE17" stroke-width="2" stroke-linecap="round" stroke-linejoin="round"/>
</svg>
