<svg width="18" height="18" viewBox="0 0 18 18" fill="none" xmlns="http://www.w3.org/2000/svg">
<path d="M9.09726 9.63167C9.04056 9.62357 8.96766 9.62357 8.90286 9.63167C7.47726 9.58307 6.34326 8.41667 6.34326 6.98297C6.34326 5.51687 7.52586 4.32617 9.00006 4.32617C10.4662 4.32617 11.6569 5.51687 11.6569 6.98297C11.6488 8.41667 10.5229 9.58307 9.09726 9.63167Z" stroke="black" stroke-width="1.62" stroke-linecap="round" stroke-linejoin="round"/>
<path d="M14.4593 14.9777C13.0175 16.298 11.1059 17.0999 8.99993 17.0999C6.89393 17.0999 4.98233 16.298 3.54053 14.9777C3.62153 14.2163 4.10753 13.4711 4.97423 12.8879C7.19363 11.4137 10.8224 11.4137 13.0256 12.8879C13.8923 13.4711 14.3783 14.2163 14.4593 14.9777Z" stroke="black" stroke-width="1.62" stroke-linecap="round" stroke-linejoin="round"/>
<path d="M8.9999 17.0999C13.4734 17.0999 17.0999 13.4734 17.0999 8.9999C17.0999 4.5264 13.4734 0.899902 8.9999 0.899902C4.5264 0.899902 0.899902 4.5264 0.899902 8.9999C0.899902 13.4734 4.5264 17.0999 8.9999 17.0999Z" stroke="black" stroke-width="1.62" stroke-linecap="round" stroke-linejoin="round"/>
</svg>
