<svg width="60" height="60" viewBox="0 0 60 60" fill="none" xmlns="http://www.w3.org/2000/svg">
<rect width="60" height="60" rx="15" fill="#F4F4F4"/>
<path d="M36.9996 36.25V39H24.0996V36.825L31.0496 30.225C31.8329 29.475 32.3579 28.825 32.6246 28.275C32.9079 27.7083 33.0496 27.15 33.0496 26.6C33.0496 25.7833 32.7746 25.1583 32.2246 24.725C31.6746 24.2917 30.8663 24.075 29.7996 24.075C28.0163 24.075 26.6496 24.6833 25.6996 25.9L23.4246 24.15C24.1079 23.2333 25.0246 22.525 26.1746 22.025C27.3413 21.5083 28.6413 21.25 30.0746 21.25C31.9746 21.25 33.4913 21.7 34.6246 22.6C35.7579 23.5 36.3246 24.725 36.3246 26.275C36.3246 27.225 36.1246 28.1167 35.7246 28.95C35.3246 29.7833 34.5579 30.7333 33.4246 31.8L28.7496 36.25H36.9996Z" fill="black"/>
</svg>
