<svg width="60" height="60" viewBox="0 0 60 60" fill="none" xmlns="http://www.w3.org/2000/svg">
<rect width="60" height="60" rx="15" fill="#F4F4F4"/>
<path d="M31.7746 28.725C33.3913 28.925 34.6246 29.475 35.4746 30.375C36.3246 31.275 36.7496 32.4 36.7496 33.75C36.7496 34.7667 36.4913 35.6917 35.9746 36.525C35.4579 37.3583 34.6746 38.025 33.6246 38.525C32.5913 39.0083 31.3246 39.25 29.8246 39.25C28.5746 39.25 27.3663 39.075 26.1996 38.725C25.0496 38.3583 24.0663 37.8583 23.2496 37.225L24.6496 34.7C25.2829 35.2333 26.0496 35.6583 26.9496 35.975C27.8663 36.275 28.8079 36.425 29.7746 36.425C30.9246 36.425 31.8246 36.1917 32.4746 35.725C33.1413 35.2417 33.4746 34.5917 33.4746 33.775C33.4746 32.9583 33.1579 32.325 32.5246 31.875C31.9079 31.4083 30.9579 31.175 29.6746 31.175H28.0746V28.95L32.0496 24.225H24.0996V21.5H36.0246V23.675L31.7746 28.725Z" fill="black"/>
</svg>
