<svg width="30" height="30" viewBox="0 0 30 30" fill="none" xmlns="http://www.w3.org/2000/svg">
<path d="M26.25 8.75V21.25C26.25 25 24.375 27.5 20 27.5H10C5.625 27.5 3.75 25 3.75 21.25V8.75C3.75 5 5.625 2.5 10 2.5H20C24.375 2.5 26.25 5 26.25 8.75Z" stroke="#292D32" stroke-width="1.875" stroke-miterlimit="10" stroke-linecap="round" stroke-linejoin="round"/>
<path d="M18.125 5.625V8.125C18.125 9.5 19.25 10.625 20.625 10.625H23.125" stroke="#292D32" stroke-width="1.875" stroke-miterlimit="10" stroke-linecap="round" stroke-linejoin="round"/>
<path d="M10.2591 17.8708C10.6929 17.8708 11.0863 17.9635 11.4391 18.1488C11.7977 18.3289 12.0783 18.5858 12.2807 18.9195C12.4832 19.2479 12.5844 19.6319 12.5844 20.0715C12.5844 20.5111 12.4832 20.8978 12.2807 21.2315C12.0783 21.5599 11.7977 21.8167 11.4391 22.0021C11.0863 22.1822 10.6929 22.2722 10.2591 22.2722C9.66333 22.2722 9.1948 22.1001 8.85353 21.7558V23.75H7.5V17.9343H8.79279V18.4269C9.12829 18.0561 9.61706 17.8708 10.2591 17.8708ZM10.0249 21.2553C10.3719 21.2553 10.6553 21.1494 10.8751 20.9375C11.1007 20.7203 11.2135 20.4317 11.2135 20.0715C11.2135 19.7113 11.1007 19.4253 10.8751 19.2135C10.6553 18.9963 10.3719 18.8877 10.0249 18.8877C9.6778 18.8877 9.39147 18.9963 9.16588 19.2135C8.94608 19.4253 8.83618 19.7113 8.83618 20.0715C8.83618 20.4317 8.94608 20.7203 9.16588 20.9375C9.39147 21.1494 9.6778 21.2553 10.0249 21.2553Z" fill="black"/>
<path d="M18.2452 16.3136V22.2087H16.9524V21.7161C16.6169 22.0869 16.131 22.2722 15.4948 22.2722C15.0552 22.2722 14.656 22.1822 14.2974 22.0021C13.9446 21.822 13.6669 21.5651 13.4645 21.2315C13.262 20.8978 13.1608 20.5111 13.1608 20.0715C13.1608 19.6319 13.262 19.2452 13.4645 18.9115C13.6669 18.5779 13.9446 18.321 14.2974 18.1409C14.656 17.9608 15.0552 17.8708 15.4948 17.8708C16.0905 17.8708 16.5562 18.0429 16.8917 18.3872V16.3136H18.2452ZM15.729 21.2553C16.0703 21.2553 16.3537 21.1494 16.5793 20.9375C16.8049 20.7203 16.9177 20.4317 16.9177 20.0715C16.9177 19.7113 16.8049 19.4253 16.5793 19.2135C16.3537 18.9963 16.0703 18.8877 15.729 18.8877C15.382 18.8877 15.0956 18.9963 14.8701 19.2135C14.6445 19.4253 14.5317 19.7113 14.5317 20.0715C14.5317 20.4317 14.6445 20.7203 14.8701 20.9375C15.0956 21.1494 15.382 21.2553 15.729 21.2553Z" fill="black"/>
<path d="M20.9816 18.0297H22.179V18.9831H21.0163V22.2087H19.6628V18.9831H18.9426V18.0297H19.6628V17.839C19.6628 17.3517 19.819 16.965 20.1313 16.679C20.4495 16.393 20.8949 16.25 21.4675 16.25C21.67 16.25 21.8608 16.2712 22.0401 16.3136C22.2252 16.3506 22.3785 16.4063 22.5 16.4804L22.1443 17.3782C21.9881 17.2775 21.8059 17.2272 21.5976 17.2272C21.187 17.2272 20.9816 17.4338 20.9816 17.8469V18.0297Z" fill="black"/>
</svg>
