<svg width="80" height="35" viewBox="0 0 80 35" fill="none" xmlns="http://www.w3.org/2000/svg">
<path d="M12.0555 19.177L9.33082 28.5617L6.60619 19.177H2.26318L0 34.5612H4.16601L5.31656 25.6403L7.93373 34.5612H10.7279L13.3451 25.6403L14.4957 34.5612H18.6617L16.3985 19.177H12.0555Z" fill="white"/>
<path d="M47.3119 28.2545L41.6414 19.177H37.0708V34.5612H41.2621V25.3332L47.0022 34.5612H51.5033V19.177H47.3119V28.2545Z" fill="white"/>
<path d="M54.291 34.5612H63.6029V30.8687H58.6403V28.4112H63.1351V25.026H58.6403V22.8694H63.6029V19.177H54.291V34.5612Z" fill="white"/>
<path d="M74.7037 19.177L72.1371 24.5871L69.4946 19.177H64.3804L69.7412 28.5868V34.5612H74.0842V28.5868L79.451 19.177H74.7037Z" fill="white"/>
<path d="M27.626 18.7507C23.0997 18.7507 19.4331 22.3868 19.4331 26.8754C19.4331 31.364 23.0997 35.0001 27.626 35.0001C32.1524 35.0001 35.819 31.364 35.819 26.8754C35.819 22.3931 32.1461 18.7507 27.626 18.7507ZM27.626 31.3202C25.1479 31.3202 23.144 29.3329 23.144 26.8754C23.144 24.4179 25.1479 22.4306 27.626 22.4306C30.1042 22.4306 32.1082 24.4179 32.1082 26.8754C32.1082 29.3329 30.0979 31.3202 27.626 31.3202Z" fill="white"/>
<path d="M21.1334 12.0866C21.2788 12.5882 21.5001 13.0834 21.7845 13.5787C22.0754 14.0802 22.4736 14.5253 22.9794 14.9328C23.4851 15.3403 24.1236 15.66 24.8759 15.9108C25.6281 16.1615 26.5448 16.2869 27.6258 16.2869C28.7068 16.2869 29.6235 16.1615 30.3758 15.9108C31.1281 15.66 31.7602 15.334 32.2723 14.9328C32.7844 14.5316 33.1826 14.0802 33.4671 13.5787C33.7579 13.0834 33.9729 12.5819 34.1183 12.0866C34.2636 11.5914 34.3584 11.1212 34.3964 10.6886C34.4343 10.2561 34.4532 9.89873 34.4532 9.62293V0.463867H30.1103V9.54142C30.1103 9.77335 30.085 10.068 30.0407 10.4191C29.9965 10.7701 29.8953 11.1087 29.731 11.4284C29.5666 11.7481 29.3201 12.0239 28.9913 12.2496C28.6563 12.4753 28.2074 12.5882 27.6258 12.5882C27.0506 12.5882 26.5954 12.4753 26.2603 12.2496C25.9253 12.0239 25.6787 11.7481 25.5207 11.4284C25.3563 11.1087 25.2552 10.7701 25.211 10.4191C25.1667 10.068 25.1414 9.77335 25.1414 9.54142V0.463867H20.7983V9.62923C20.7983 9.90503 20.8173 10.2623 20.8553 10.6949C20.8932 11.1275 20.9817 11.5914 21.1334 12.0866Z" fill="white"/>
<path d="M41.4324 0.463867H37.0894V15.8481H41.4324V0.463867Z" fill="white"/>
<path d="M55.6626 10.7702C55.2643 11.1777 54.7523 11.5601 54.1328 11.9111C53.5133 12.2622 52.7926 12.4378 51.9834 12.4378C51.3639 12.4378 50.8076 12.3312 50.3208 12.118C49.834 11.9049 49.4168 11.6102 49.0691 11.2404C48.7214 10.8642 48.4622 10.4254 48.2852 9.9239C48.1082 9.41609 48.0197 8.87063 48.0197 8.28769C48.0197 7.66074 48.1145 7.07146 48.3105 6.53232C48.5001 5.99318 48.7657 5.52301 49.107 5.12806C49.4484 4.73311 49.8593 4.42593 50.3461 4.20651C50.8329 3.9871 51.3829 3.87425 51.9834 3.87425C52.3943 3.87425 52.7863 3.9244 53.1466 4.03098C53.5069 4.13128 53.842 4.27547 54.1454 4.451C54.4489 4.62653 54.727 4.82715 54.9736 5.04656C55.2265 5.26598 55.4541 5.49166 55.6626 5.72989V1.2538C54.9989 0.814963 54.2971 0.501514 53.5575 0.307174C52.8179 0.119103 52.1036 0.0187988 51.4081 0.0187988C50.3587 0.0187988 49.3599 0.200601 48.4053 0.570474C47.4508 0.93408 46.6163 1.46694 45.8893 2.16281C45.1623 2.85867 44.5933 3.71126 44.1698 4.71431C43.7462 5.71735 43.5376 6.86458 43.5376 8.15601C43.5376 9.38474 43.7336 10.5069 44.1255 11.5099C44.5174 12.513 45.0675 13.3656 45.7755 14.0677C46.4835 14.7698 47.3243 15.3152 48.2916 15.7039C49.2588 16.0926 50.3208 16.2869 51.4713 16.2869C52.1352 16.2869 52.8242 16.2117 53.5323 16.0675C54.2403 15.9234 54.9483 15.6161 55.6626 15.146V10.7702Z" fill="white"/>
<path d="M62.174 9.23427L66.6751 15.8481H72.1055L66.0556 7.91151L71.9537 0.463867H66.8521L62.174 6.92097V0.463867H57.8311V15.8481H62.174V9.23427Z" fill="white"/>
<path d="M10.4688 16.2493C11.4234 16.2493 12.3337 16.0801 13.1808 15.7854L13.1871 15.7917L20.8617 18.7632L16.5314 13.585V13.5788C17.8526 12.1368 18.6618 10.231 18.6618 8.13097C18.6618 3.63604 14.9952 0 10.4688 0C5.94247 0 2.27588 3.63604 2.27588 8.12467C2.27588 12.607 5.9488 16.2493 10.4688 16.2493ZM10.4688 3.67992C12.947 3.67992 14.9509 5.6672 14.9509 8.12467C14.9509 9.08382 14.6412 9.96777 14.1228 10.6887L12.163 8.34408L9.15394 10.5131L10.7154 12.5568C10.6332 12.5631 10.551 12.5694 10.4625 12.5694C7.98437 12.5694 5.9804 10.5821 5.9804 8.12467C5.98673 5.6672 7.997 3.67992 10.4688 3.67992Z" fill="#FFDE17"/>
</svg>
