<?xml version="1.0" encoding="utf-8"?>
<!-- Generator: Adobe Illustrator 21.0.0, SVG Export Plug-In . SVG Version: 6.00 Build 0)  -->
<svg version="1.1" id="cyberpower" xmlns="http://www.w3.org/2000/svg" xmlns:xlink="http://www.w3.org/1999/xlink" x="0px" y="0px"
	 viewBox="0 0 210 40" style="enable-background:new 0 0 210 40;" xml:space="preserve">
<style type="text/css">
	.st0{fill:#FFFFFF;}
</style>
<g>
	<g>
		<path class="st0" d="M35.9,22c0-0.4-0.2-0.7-0.5-0.9c-0.4-0.4-0.9-0.6-1.5-0.5c-0.8,0-1.6,0.7-1.6,1.5v0.6c0,2.8-2,4.5-5.2,4.5
			c-3.1,0-5.3-2-5.3-4.5V11.4c0-2.5,2.3-4.5,5.3-4.5c3.5,0,5.6,1.8,5.6,4.5V12c0,0.7,0.7,1.4,1.5,1.4c0.8,0,1.5-0.7,1.5-1.4v-0.7
			c0-4.4-4.5-8.1-9.9-8.1C20.5,3.4,16,7,16,11.5v11.2c0,4.4,4.5,8,9.9,8s9.9-3.7,9.9-8.1V22L35.9,22z"/>
		<path class="st0" d="M50,13.9c-0.9,0-1.7,0.5-2,1.1l-2.5,5.5c-0.1,0.2-0.4,0.5-0.6,0.5c-0.1,0-0.3,0-0.5-0.5l-2.7-5
			c-0.7-1.5-1.8-1.7-2.8-1.7c-1.2,0-2.2,0.5-2.7,1.3c-0.4,0.7-0.4,1.3,0,2l3.9,6.7c1.3,2.2,1.7,4.1,1.1,5.7c-0.7,1.7-2.3,3-5.2,4.1
			l-1,0.4c-0.8,0.3-1.3,1.1-1.1,2c0.3,1,1.7,1.5,2.7,1.2l0,0l1-0.3c4.9-1.3,8.1-4.1,9.6-8.4l4.5-12.8c0.1-0.5,0.1-0.9-0.2-1.2
			C51,14.1,50.6,13.9,50,13.9L50,13.9z"/>
		<path class="st0" d="M62.2,13.8c-1.6,0-2.9,0.6-3.7,1c0-1.4,0-8.6,0-8.6c0-2-1.4-2.8-2.9-2.8c-1.9,0-2.9,1-2.9,2.8v23
			c0,0.9,0.6,1.6,1.5,1.6c0.6,0,0.8-0.3,1.1-0.5l0.1-0.1c0,0,1.3-1,1.9-1.5c1.3,1.3,2.9,2.1,4.9,2.1c3.7,0,7.1-2.9,7.1-5.9v-5.1
			C69.3,16.7,65.8,13.8,62.2,13.8L62.2,13.8z M63.5,20.5V25c0,1.4-1.7,2.2-2.8,2.2c-0.7,0-2.8-0.2-2.8-2.2v-5.1c0-2,2-2.2,3.1-2.2
			C62.5,17.5,63.5,19,63.5,20.5L63.5,20.5z"/>
		<path class="st0" d="M78.8,13.9c-4,0-8.2,2.2-8.2,5.8v5.1c0,3.5,4.6,5.8,8.8,5.8h2.2c1.4,0,1.9-0.7,1.9-1.3s-0.5-1.3-1.9-1.3h-2.2
			c-2,0-3.4-1.6-3.4-3.1v-1.5c0-0.1,0-0.3,0.6-0.3h7.8c1.6,0,2.8-0.9,2.8-2.1v-1.3c0-1.3-0.5-2.4-1.5-3.4
			C84.3,14.9,81.6,13.9,78.8,13.9L78.8,13.9z M81.4,19.1v0.4c0,0.2-0.1,0.5-0.4,0.5H77c-0.3,0-0.6-0.2-0.6-0.4V19c0,0,0-1.8,2.3-1.8
			C80.9,17.2,81.4,18.3,81.4,19.1L81.4,19.1z"/>
		<path class="st0" d="M99.6,13.9h-1c-1.3,0-2.9,0.8-4.1,2.1c0,0-0.3,0.4-0.6,0.6c-0.6-0.4-2.7-2.2-2.7-2.2
			c-0.3-0.2-0.7-0.6-1.3-0.6c-0.9,0-1.4,0.7-1.4,1.4v12.9c0,1.3,1.3,2.4,2.9,2.4s2.9-1.1,2.9-2.4c0,0,0-8.1,0-8.6
			c0.2-0.2,0.7-0.7,0.7-0.7c0.7-0.6,1.8-0.9,3-0.9h1.6c1.4,0,2.5-0.9,2.5-2.1C102.1,15,101,13.9,99.6,13.9L99.6,13.9z"/>
		<path class="st0" d="M110.8,30.2h-7V7.6h9.3c2.2,0,4.7,0.1,6.6,1.2c2.2,1.2,3.4,3.5,3.4,5.9c0,2.2-0.8,4.2-2.5,5.5
			c-1.8,1.4-4,1.8-6.2,1.8h-3.6V30.2 M112.5,17.2c1.6,0,3.5-0.1,3.5-2.2c0-2-1.7-2.2-3.3-2.2h-2v4.4H112.5L112.5,17.2z"/>
		<path class="st0" d="M140.6,22c0,5.1-4.1,8.6-9.3,8.6s-9.3-3.5-9.3-8.6c0-5.4,4-8.9,9.3-8.9C136.6,13.1,140.6,16.5,140.6,22
			 M129.1,21.7c0,4.5,1.1,4.9,2.2,4.9c1.2,0,2.2-0.4,2.2-4.9c0-1.6,0-4.6-2.2-4.6C129.1,17.2,129.1,20.1,129.1,21.7L129.1,21.7z"/>
		<polygon class="st0" points="159,30.2 154.2,30.2 152.1,21.1 152,21.1 149.7,30.2 145,30.2 139.6,13.4 146.1,13.4 148.3,21.6 
			148.3,21.6 150.5,13.4 155.3,13.4 157.4,21.6 159.7,13.4 164.3,13.4 		"/>
		<path class="st0" d="M181.5,24.6c-1,4.1-4.7,6-8.6,6c-2.4,0-4.9-0.6-6.7-2.2c-1.8-1.6-2.8-3.9-2.8-6.4c0-2.2,0.8-4.8,2.4-6.4
			c1.7-1.8,4.3-2.6,6.6-2.6c5.6,0,9.1,3.7,9.1,9.2V23h-11.2c-0.1,1.8,0.6,3.1,2.5,3.1c1.5,0,2.3-0.6,2.5-2.1L181.5,24.6 M175,19.8
			c0-1.7-0.6-2.9-2.3-2.9c-1.7,0-2.4,1.3-2.3,2.9H175L175,19.8z"/>
		<path class="st0" d="M188.7,16.8c0.6-2.3,1.8-4,4.4-3.8l0.9,0.1V19c-0.4-0.1-0.8-0.2-1.2-0.2c-1,0-2.2,0.2-2.6,1.1
			c-0.5,0.8-0.5,1.9-0.5,2.9v7.3h-6.6V13.3h5.5L188.7,16.8L188.7,16.8L188.7,16.8z"/>
	</g>
</g>
</svg>
