<svg width="143" height="143" viewBox="0 0 143 143" fill="none" xmlns="http://www.w3.org/2000/svg">
<circle cx="7.5" cy="39.5" r="7.5" fill="#ACB6C9"/>
<circle cx="7.5" cy="71.5" r="7.5" fill="#ACB6C9"/>
<circle cx="7.5" cy="103.5" r="7.5" fill="#ACB6C9"/>
<circle cx="39.5" cy="39.5" r="7.5" fill="#ACB6C9"/>
<circle cx="39.5" cy="71.5" r="7.5" fill="#ACB6C9"/>
<circle cx="39.5" cy="103.5" r="7.5" fill="#ACB6C9"/>
<circle cx="71.5" cy="39.5" r="7.5" fill="#ACB6C9"/>
<circle cx="71.5" cy="71.5" r="7.5" fill="#ACB6C9"/>
<circle cx="71.5" cy="103.5" r="7.5" fill="#ACB6C9"/>
<circle cx="103.5" cy="39.5" r="7.5" fill="#ACB6C9"/>
<circle cx="103.5" cy="71.5" r="7.5" fill="#ACB6C9"/>
<circle cx="103.5" cy="103.5" r="7.5" fill="#ACB6C9"/>
<circle cx="135.5" cy="39.5" r="7.5" fill="#ACB6C9"/>
<circle cx="135.5" cy="71.5" r="7.5" fill="#ACB6C9"/>
<circle cx="135.5" cy="103.5" r="7.5" fill="#ACB6C9"/>
<circle cx="39.5" cy="7.5" r="7.5" fill="#ACB6C9"/>
<circle cx="36.5" cy="135.5" r="7.5" fill="#ACB6C9"/>
<circle cx="71.5" cy="7.5" r="7.5" fill="#ACB6C9"/>
<circle cx="68.5" cy="135.5" r="7.5" fill="#ACB6C9"/>
<circle cx="103.5" cy="7.5" r="7.5" fill="#ACB6C9"/>
<circle cx="100.5" cy="135.5" r="7.5" fill="#ACB6C9"/>
</svg>
