<svg width="30" height="30" viewBox="0 0 30 30" fill="none" xmlns="http://www.w3.org/2000/svg">
<rect width="30" height="30" rx="15" fill="#EB5757"/>
<path d="M10.8333 12.5C10.3731 12.0398 10.3731 11.2936 10.8333 10.8333C11.2936 10.3731 12.0398 10.3731 12.5 10.8333L19.1667 17.5C19.6269 17.9602 19.6269 18.7064 19.1667 19.1667C18.7064 19.6269 17.9602 19.6269 17.5 19.1667L10.8333 12.5Z" fill="white"/>
<path d="M12.5 19.1667C12.0398 19.6269 11.2936 19.6269 10.8333 19.1667C10.3731 18.7064 10.3731 17.9602 10.8333 17.5L17.5 10.8333C17.9602 10.3731 18.7064 10.3731 19.1667 10.8333C19.6269 11.2936 19.6269 12.0398 19.1667 12.5L12.5 19.1667Z" fill="white"/>
</svg>
