<svg width="16" height="16" viewBox="0 0 16 16" fill="none" xmlns="http://www.w3.org/2000/svg">
<path d="M14.9746 12.431C14.9746 12.683 14.9186 12.942 14.7996 13.194C14.6806 13.446 14.5266 13.684 14.3236 13.908C13.9806 14.286 13.6026 14.559 13.1756 14.734C12.7556 14.909 12.3006 15 11.8106 15C11.0966 15 10.3336 14.832 9.52861 14.489C8.72361 14.146 7.91861 13.684 7.12061 13.103C6.31561 12.515 5.55261 11.864 4.82461 11.143C4.10361 10.415 3.45261 9.652 2.87161 8.854C2.29761 8.056 1.83561 7.258 1.49961 6.467C1.16361 5.669 0.995605 4.906 0.995605 4.178C0.995605 3.702 1.07961 3.247 1.24761 2.827C1.41561 2.4 1.68161 2.008 2.05261 1.658C2.50061 1.217 2.99061 1 3.50861 1C3.70461 1 3.90061 1.042 4.07561 1.126C4.25761 1.21 4.41861 1.336 4.54461 1.518L6.16861 3.807C6.29461 3.982 6.38561 4.143 6.44861 4.297C6.51161 4.444 6.54661 4.591 6.54661 4.724C6.54661 4.892 6.49761 5.06 6.39961 5.221C6.30861 5.382 6.17561 5.55 6.00761 5.718L5.47561 6.271C5.39861 6.348 5.36361 6.439 5.36361 6.551C5.36361 6.607 5.37061 6.656 5.38461 6.712C5.40561 6.768 5.42661 6.81 5.44061 6.852C5.56661 7.083 5.78361 7.384 6.09161 7.748C6.40661 8.112 6.74261 8.483 7.10661 8.854C7.48461 9.225 7.84861 9.568 8.21961 9.883C8.58361 10.191 8.88461 10.401 9.12261 10.527C9.15761 10.541 9.19961 10.562 9.24861 10.583C9.30461 10.604 9.36061 10.611 9.42361 10.611C9.54261 10.611 9.63361 10.569 9.71061 10.492L10.2426 9.967C10.4176 9.792 10.5856 9.659 10.7466 9.575C10.9076 9.477 11.0686 9.428 11.2436 9.428C11.3766 9.428 11.5166 9.456 11.6706 9.519C11.8246 9.582 11.9856 9.673 12.1606 9.792L14.4776 11.437C14.6596 11.563 14.7856 11.71 14.8626 11.885C14.9326 12.06 14.9746 12.235 14.9746 12.431Z" stroke="white" stroke-width="1.8" stroke-miterlimit="10"/>
</svg>
