<svg width="70" height="70" viewBox="0 0 70 70" fill="none" xmlns="http://www.w3.org/2000/svg">
<rect width="70" height="70" rx="15" fill="#F4F4F4"/>
<path d="M51.6668 36.6666V29.9999C51.6668 21.6666 48.3335 18.3333 40.0002 18.3333H30.0002C21.6668 18.3333 18.3335 21.6666 18.3335 29.9999V39.9999C18.3335 48.3333 21.6668 51.6666 30.0002 51.6666H36.6668" stroke="#292D32" stroke-width="2.5" stroke-linecap="round" stroke-linejoin="round"/>
<path d="M51.6668 36.6666V29.9999C51.6668 21.6666 48.3335 18.3333 40.0002 18.3333H30.0002C21.6668 18.3333 18.3335 21.6666 18.3335 29.9999V39.9999C18.3335 48.3333 21.6668 51.6666 30.0002 51.6666H36.6668" stroke="#292D32" stroke-width="2.5" stroke-linecap="round" stroke-linejoin="round"/>
<path d="M51.6668 36.6666V29.9999C51.6668 21.6666 48.3335 18.3333 40.0002 18.3333H30.0002C21.6668 18.3333 18.3335 21.6666 18.3335 29.9999V39.9999C18.3335 48.3333 21.6668 51.6666 30.0002 51.6666H36.6668" stroke="#292D32" stroke-width="2.5" stroke-linecap="round" stroke-linejoin="round"/>
<path d="M41.6665 47.3833L44.2998 49.9999L49.9998 43.3333" stroke="#292D32" stroke-width="2.5" stroke-linecap="round" stroke-linejoin="round"/>
<path d="M26.6665 32.5V37.5" stroke="#292D32" stroke-width="2.5" stroke-linecap="round" stroke-linejoin="round"/>
<path d="M35 32.5V37.5" stroke="#292D32" stroke-width="2.5" stroke-linecap="round" stroke-linejoin="round"/>
<path d="M43.3335 32.5V37.5" stroke="#292D32" stroke-width="2.5" stroke-linecap="round" stroke-linejoin="round"/>
</svg>
