<svg width="70" height="70" viewBox="0 0 70 70" fill="none" xmlns="http://www.w3.org/2000/svg">
<rect width="70" height="70" rx="15" fill="#F4F4F4"/>
<path d="M18.333 36.0166H46.6663" stroke="#292D32" stroke-width="2.5" stroke-miterlimit="10" stroke-linecap="round" stroke-linejoin="round"/>
<path d="M46.6663 32.1334V44.0501C46.6163 48.8001 45.3163 50.0001 40.3663 50.0001H24.6331C19.5997 50.0001 18.333 48.7501 18.333 43.7834V32.1334C18.333 27.6334 19.383 26.1834 23.333 25.9501C23.733 25.9334 24.1664 25.9167 24.6331 25.9167H40.3663C45.3996 25.9167 46.6663 27.1667 46.6663 32.1334Z" stroke="#292D32" stroke-width="2.5" stroke-linecap="round" stroke-linejoin="round"/>
<path d="M51.6663 26.2167V37.8667C51.6663 42.3667 50.6163 43.8167 46.6663 44.05V32.1333C46.6663 27.1667 45.3996 25.9167 40.3663 25.9167H24.6331C24.1664 25.9167 23.733 25.9333 23.333 25.95C23.383 21.2 24.6831 20 29.6331 20H45.3663C50.3996 20 51.6663 21.25 51.6663 26.2167Z" stroke="#292D32" stroke-width="2.5" stroke-linecap="round" stroke-linejoin="round"/>
<path d="M23.75 44.6833H26.6166" stroke="#292D32" stroke-width="2.5" stroke-miterlimit="10" stroke-linecap="round" stroke-linejoin="round"/>
<path d="M30.1831 44.6833H35.9164" stroke="#292D32" stroke-width="2.5" stroke-miterlimit="10" stroke-linecap="round" stroke-linejoin="round"/>
</svg>
