<svg width="70" height="70" viewBox="0 0 70 70" fill="none" xmlns="http://www.w3.org/2000/svg">
<rect width="70" height="70" rx="15" fill="#F4F4F4"/>
<path d="M45 46.4334H43.7333C42.4 46.4334 41.1333 46.9501 40.2 47.8834L37.35 50.7002C36.05 51.9835 33.9333 51.9835 32.6333 50.7002L29.7833 47.8834C28.85 46.9501 27.5667 46.4334 26.25 46.4334H25C22.2333 46.4334 20 44.2168 20 41.4834V23.3C20 20.5667 22.2333 18.3501 25 18.3501H45C47.7667 18.3501 50 20.5667 50 23.3V41.4834C50 44.2001 47.7667 46.4334 45 46.4334Z" stroke="#292D32" stroke-width="2.5" stroke-miterlimit="10" stroke-linecap="round" stroke-linejoin="round"/>
<path d="M26.6665 30.2665C26.6665 28.7165 27.9332 27.4497 29.4832 27.4497C31.0332 27.4497 32.2998 28.7165 32.2998 30.2665C32.2998 33.3998 27.8498 33.7331 26.8665 36.7165C26.6665 37.3331 27.1832 37.9498 27.8332 37.9498H32.2998" stroke="#292D32" stroke-width="2.5" stroke-linecap="round" stroke-linejoin="round"/>
<path d="M41.7329 37.9334V28.4168C41.7329 27.9834 41.4496 27.6 41.0329 27.4833C40.6163 27.3667 40.1663 27.5333 39.933 27.9C38.733 29.8333 37.4329 32.0333 36.2996 33.9667C36.1163 34.2833 36.1163 34.7 36.2996 35.0167C36.4829 35.3334 36.8329 35.5333 37.2163 35.5333H43.3329" stroke="#292D32" stroke-width="2.5" stroke-linecap="round" stroke-linejoin="round"/>
</svg>
