<svg width="16" height="16" viewBox="0 0 16 16" fill="none" xmlns="http://www.w3.org/2000/svg">
<path fill-rule="evenodd" clip-rule="evenodd" d="M15.6316 3.83772C15.7442 3.46256 15.6316 3.19995 15.1064 3.19995H13.3556C12.9055 3.19995 12.7054 3.43755 12.5928 3.70017C12.5928 3.70017 11.705 5.8761 10.4419 7.2767C10.0292 7.68937 9.85417 7.81443 9.62907 7.81443C9.51653 7.81443 9.35396 7.68937 9.35396 7.31421V3.83772C9.35396 3.38753 9.2289 3.19995 8.85375 3.19995H6.10258C5.82747 3.19995 5.65239 3.41254 5.65239 3.60012C5.65239 4.0253 6.27766 4.12535 6.35269 5.30085V7.87695C6.35269 8.4397 6.25265 8.53974 6.02755 8.53974C5.4398 8.53974 3.98919 6.36381 3.13883 3.86274C2.96375 3.40004 2.80118 3.19995 2.35099 3.19995H0.600254C0.100042 3.19995 0 3.43755 0 3.70017C0 4.16286 0.587748 6.46385 2.76367 9.50265C4.21428 11.5785 6.25265 12.704 8.10343 12.704C9.2164 12.704 9.35396 12.4539 9.35396 12.0287V10.4531C9.35396 9.95284 9.454 9.8528 9.81665 9.8528C10.0793 9.8528 10.5169 9.97785 11.5549 10.9783C12.7429 12.1663 12.943 12.704 13.6058 12.704H15.3565C15.8567 12.704 16.1068 12.4539 15.9568 11.9662C15.7942 11.4785 15.2314 10.7657 14.4811 9.91533C14.0685 9.42762 13.4557 8.9149 13.2806 8.65229C13.018 8.31464 13.093 8.16458 13.2806 7.87695C13.2806 7.86445 15.419 4.86316 15.6316 3.83772Z" fill="white"/>
</svg>
